<svg width="1490" height="1136" viewBox="0 0 1490 1136" fill="none" xmlns="http://www.w3.org/2000/svg">
<g opacity="0.4">
<line x1="1" y1="1" x2="0.999976" y2="560" stroke="white" stroke-opacity="0.15" stroke-width="2" stroke-linecap="round" stroke-dasharray="0.5 16"/>
<line x1="17" y1="1" x2="17" y2="560" stroke="white" stroke-opacity="0.15" stroke-width="2" stroke-linecap="round" stroke-dasharray="0.5 16"/>
<line x1="33" y1="1" x2="33" y2="560" stroke="white" stroke-opacity="0.15" stroke-width="2" stroke-linecap="round" stroke-dasharray="0.5 16"/>
<line x1="49" y1="1" x2="49" y2="560" stroke="white" stroke-opacity="0.15" stroke-width="2" stroke-linecap="round" stroke-dasharray="0.5 16"/>
<line x1="65" y1="1" x2="65" y2="560" stroke="white" stroke-opacity="0.15" stroke-width="2" stroke-linecap="round" stroke-dasharray="0.5 16"/>
<line x1="81" y1="1" x2="81" y2="560" stroke="white" stroke-opacity="0.15" stroke-width="2" stroke-linecap="round" stroke-dasharray="0.5 16"/>
<line x1="97" y1="1" x2="97" y2="560" stroke="white" stroke-opacity="0.15" stroke-width="2" stroke-linecap="round" stroke-dasharray="0.5 16"/>
<line x1="113" y1="1" x2="113" y2="560" stroke="white" stroke-opacity="0.15" stroke-width="2" stroke-linecap="round" stroke-dasharray="0.5 16"/>
<line x1="129" y1="1" x2="129" y2="560" stroke="white" stroke-opacity="0.15" stroke-width="2" stroke-linecap="round" stroke-dasharray="0.5 16"/>
<line x1="145" y1="1" x2="145" y2="560" stroke="white" stroke-opacity="0.15" stroke-width="2" stroke-linecap="round" stroke-dasharray="0.5 16"/>
<line x1="161" y1="1" x2="161" y2="560" stroke="white" stroke-opacity="0.15" stroke-width="2" stroke-linecap="round" stroke-dasharray="0.5 16"/>
<line x1="177" y1="1" x2="177" y2="560" stroke="white" stroke-opacity="0.15" stroke-width="2" stroke-linecap="round" stroke-dasharray="0.5 16"/>
<line x1="193" y1="1" x2="193" y2="560" stroke="white" stroke-opacity="0.15" stroke-width="2" stroke-linecap="round" stroke-dasharray="0.5 16"/>
<line x1="209" y1="1" x2="209" y2="560" stroke="white" stroke-opacity="0.15" stroke-width="2" stroke-linecap="round" stroke-dasharray="0.5 16"/>
<line x1="225" y1="1" x2="225" y2="560" stroke="white" stroke-opacity="0.15" stroke-width="2" stroke-linecap="round" stroke-dasharray="0.5 16"/>
<line x1="241" y1="1" x2="241" y2="560" stroke="white" stroke-opacity="0.15" stroke-width="2" stroke-linecap="round" stroke-dasharray="0.5 16"/>
<line x1="257" y1="1" x2="257" y2="560" stroke="white" stroke-opacity="0.15" stroke-width="2" stroke-linecap="round" stroke-dasharray="0.5 16"/>
<line x1="273" y1="1" x2="273" y2="560" stroke="white" stroke-opacity="0.15" stroke-width="2" stroke-linecap="round" stroke-dasharray="0.5 16"/>
<line x1="289" y1="1" x2="289" y2="560" stroke="white" stroke-opacity="0.15" stroke-width="2" stroke-linecap="round" stroke-dasharray="0.5 16"/>
<line x1="305" y1="1" x2="305" y2="560" stroke="white" stroke-opacity="0.15" stroke-width="2" stroke-linecap="round" stroke-dasharray="0.5 16"/>
<line x1="321" y1="1" x2="321" y2="560" stroke="white" stroke-opacity="0.15" stroke-width="2" stroke-linecap="round" stroke-dasharray="0.5 16"/>
<line x1="337" y1="1" x2="337" y2="560" stroke="white" stroke-opacity="0.15" stroke-width="2" stroke-linecap="round" stroke-dasharray="0.5 16"/>
<line x1="353" y1="1" x2="353" y2="560" stroke="white" stroke-opacity="0.15" stroke-width="2" stroke-linecap="round" stroke-dasharray="0.5 16"/>
<line x1="369" y1="1" x2="369" y2="560" stroke="white" stroke-opacity="0.15" stroke-width="2" stroke-linecap="round" stroke-dasharray="0.5 16"/>
<line x1="385" y1="1" x2="385" y2="560" stroke="white" stroke-opacity="0.15" stroke-width="2" stroke-linecap="round" stroke-dasharray="0.5 16"/>
<line x1="401" y1="1" x2="401" y2="560" stroke="white" stroke-opacity="0.15" stroke-width="2" stroke-linecap="round" stroke-dasharray="0.5 16"/>
<line x1="417" y1="1" x2="417" y2="560" stroke="white" stroke-opacity="0.15" stroke-width="2" stroke-linecap="round" stroke-dasharray="0.5 16"/>
<line x1="433" y1="1" x2="433" y2="560" stroke="white" stroke-opacity="0.15" stroke-width="2" stroke-linecap="round" stroke-dasharray="0.5 16"/>
<line x1="449" y1="1" x2="449" y2="560" stroke="white" stroke-opacity="0.15" stroke-width="2" stroke-linecap="round" stroke-dasharray="0.5 16"/>
<line x1="465" y1="1" x2="465" y2="560" stroke="white" stroke-opacity="0.15" stroke-width="2" stroke-linecap="round" stroke-dasharray="0.5 16"/>
<line x1="481" y1="1" x2="481" y2="560" stroke="white" stroke-opacity="0.15" stroke-width="2" stroke-linecap="round" stroke-dasharray="0.5 16"/>
<line x1="497" y1="1" x2="497" y2="560" stroke="white" stroke-opacity="0.15" stroke-width="2" stroke-linecap="round" stroke-dasharray="0.5 16"/>
<line x1="513" y1="1" x2="513" y2="560" stroke="white" stroke-opacity="0.15" stroke-width="2" stroke-linecap="round" stroke-dasharray="0.5 16"/>
<line x1="529" y1="1" x2="529" y2="560" stroke="white" stroke-opacity="0.15" stroke-width="2" stroke-linecap="round" stroke-dasharray="0.5 16"/>
<line x1="545" y1="1" x2="545" y2="560" stroke="white" stroke-opacity="0.15" stroke-width="2" stroke-linecap="round" stroke-dasharray="0.5 16"/>
<line x1="561" y1="1" x2="561" y2="560" stroke="white" stroke-opacity="0.15" stroke-width="2" stroke-linecap="round" stroke-dasharray="0.5 16"/>
<line x1="577" y1="1" x2="577" y2="560" stroke="white" stroke-opacity="0.15" stroke-width="2" stroke-linecap="round" stroke-dasharray="0.5 16"/>
<line x1="593" y1="1" x2="593" y2="560" stroke="white" stroke-opacity="0.15" stroke-width="2" stroke-linecap="round" stroke-dasharray="0.5 16"/>
<line x1="609" y1="1" x2="609" y2="560" stroke="white" stroke-opacity="0.15" stroke-width="2" stroke-linecap="round" stroke-dasharray="0.5 16"/>
<line x1="625" y1="1" x2="625" y2="560" stroke="white" stroke-opacity="0.15" stroke-width="2" stroke-linecap="round" stroke-dasharray="0.5 16"/>
<line x1="641" y1="1" x2="641" y2="560" stroke="white" stroke-opacity="0.15" stroke-width="2" stroke-linecap="round" stroke-dasharray="0.5 16"/>
<line x1="657" y1="1" x2="657" y2="560" stroke="white" stroke-opacity="0.15" stroke-width="2" stroke-linecap="round" stroke-dasharray="0.5 16"/>
<line x1="673" y1="1" x2="673" y2="560" stroke="white" stroke-opacity="0.15" stroke-width="2" stroke-linecap="round" stroke-dasharray="0.5 16"/>
<line x1="689" y1="1" x2="689" y2="560" stroke="white" stroke-opacity="0.15" stroke-width="2" stroke-linecap="round" stroke-dasharray="0.5 16"/>
<line x1="705" y1="1" x2="705" y2="560" stroke="white" stroke-opacity="0.15" stroke-width="2" stroke-linecap="round" stroke-dasharray="0.5 16"/>
<line x1="721" y1="1" x2="721" y2="560" stroke="white" stroke-opacity="0.15" stroke-width="2" stroke-linecap="round" stroke-dasharray="0.5 16"/>
<line x1="737" y1="1" x2="737" y2="560" stroke="white" stroke-opacity="0.15" stroke-width="2" stroke-linecap="round" stroke-dasharray="0.5 16"/>
<line x1="753" y1="1" x2="753" y2="560" stroke="white" stroke-opacity="0.15" stroke-width="2" stroke-linecap="round" stroke-dasharray="0.5 16"/>
<line x1="769" y1="1" x2="769" y2="560" stroke="white" stroke-opacity="0.15" stroke-width="2" stroke-linecap="round" stroke-dasharray="0.5 16"/>
<line x1="785" y1="1" x2="785" y2="560" stroke="white" stroke-opacity="0.15" stroke-width="2" stroke-linecap="round" stroke-dasharray="0.5 16"/>
<line x1="801" y1="1" x2="801" y2="560" stroke="white" stroke-opacity="0.15" stroke-width="2" stroke-linecap="round" stroke-dasharray="0.5 16"/>
<line x1="817" y1="1" x2="817" y2="560" stroke="white" stroke-opacity="0.15" stroke-width="2" stroke-linecap="round" stroke-dasharray="0.5 16"/>
<line x1="833" y1="1" x2="833" y2="560" stroke="white" stroke-opacity="0.15" stroke-width="2" stroke-linecap="round" stroke-dasharray="0.5 16"/>
<line x1="849" y1="1" x2="849" y2="560" stroke="white" stroke-opacity="0.15" stroke-width="2" stroke-linecap="round" stroke-dasharray="0.5 16"/>
<line x1="865" y1="1" x2="865" y2="560" stroke="white" stroke-opacity="0.15" stroke-width="2" stroke-linecap="round" stroke-dasharray="0.5 16"/>
<line x1="881" y1="1" x2="881" y2="560" stroke="white" stroke-opacity="0.15" stroke-width="2" stroke-linecap="round" stroke-dasharray="0.5 16"/>
<line x1="897" y1="1" x2="897" y2="560" stroke="white" stroke-opacity="0.15" stroke-width="2" stroke-linecap="round" stroke-dasharray="0.5 16"/>
<line x1="913" y1="1" x2="913" y2="560" stroke="white" stroke-opacity="0.15" stroke-width="2" stroke-linecap="round" stroke-dasharray="0.5 16"/>
<line x1="929" y1="1" x2="929" y2="560" stroke="white" stroke-opacity="0.15" stroke-width="2" stroke-linecap="round" stroke-dasharray="0.5 16"/>
<line x1="945" y1="1" x2="945" y2="560" stroke="white" stroke-opacity="0.15" stroke-width="2" stroke-linecap="round" stroke-dasharray="0.5 16"/>
<line x1="961" y1="1" x2="961" y2="560" stroke="white" stroke-opacity="0.15" stroke-width="2" stroke-linecap="round" stroke-dasharray="0.5 16"/>
<line x1="977" y1="1" x2="977" y2="560" stroke="white" stroke-opacity="0.15" stroke-width="2" stroke-linecap="round" stroke-dasharray="0.5 16"/>
<line x1="993" y1="1" x2="993" y2="560" stroke="white" stroke-opacity="0.15" stroke-width="2" stroke-linecap="round" stroke-dasharray="0.5 16"/>
<line x1="1009" y1="1" x2="1009" y2="560" stroke="white" stroke-opacity="0.15" stroke-width="2" stroke-linecap="round" stroke-dasharray="0.5 16"/>
<line x1="1025" y1="1" x2="1025" y2="560" stroke="white" stroke-opacity="0.15" stroke-width="2" stroke-linecap="round" stroke-dasharray="0.5 16"/>
<line x1="1041" y1="1" x2="1041" y2="560" stroke="white" stroke-opacity="0.15" stroke-width="2" stroke-linecap="round" stroke-dasharray="0.5 16"/>
<line x1="1057" y1="1" x2="1057" y2="560" stroke="white" stroke-opacity="0.15" stroke-width="2" stroke-linecap="round" stroke-dasharray="0.5 16"/>
<line x1="1073" y1="1" x2="1073" y2="560" stroke="white" stroke-opacity="0.15" stroke-width="2" stroke-linecap="round" stroke-dasharray="0.5 16"/>
<line x1="1089" y1="1" x2="1089" y2="560" stroke="white" stroke-opacity="0.15" stroke-width="2" stroke-linecap="round" stroke-dasharray="0.5 16"/>
<line x1="1105" y1="1" x2="1105" y2="560" stroke="white" stroke-opacity="0.15" stroke-width="2" stroke-linecap="round" stroke-dasharray="0.5 16"/>
<line x1="1121" y1="1" x2="1121" y2="560" stroke="white" stroke-opacity="0.15" stroke-width="2" stroke-linecap="round" stroke-dasharray="0.5 16"/>
<line x1="1137" y1="1" x2="1137" y2="560" stroke="white" stroke-opacity="0.15" stroke-width="2" stroke-linecap="round" stroke-dasharray="0.5 16"/>
<line x1="1153" y1="1" x2="1153" y2="560" stroke="white" stroke-opacity="0.15" stroke-width="2" stroke-linecap="round" stroke-dasharray="0.5 16"/>
<line x1="1169" y1="1" x2="1169" y2="560" stroke="white" stroke-opacity="0.15" stroke-width="2" stroke-linecap="round" stroke-dasharray="0.5 16"/>
<line x1="1185" y1="1" x2="1185" y2="560" stroke="white" stroke-opacity="0.15" stroke-width="2" stroke-linecap="round" stroke-dasharray="0.5 16"/>
<line x1="1201" y1="1" x2="1201" y2="560" stroke="white" stroke-opacity="0.15" stroke-width="2" stroke-linecap="round" stroke-dasharray="0.5 16"/>
<line x1="1217" y1="1" x2="1217" y2="560" stroke="white" stroke-opacity="0.15" stroke-width="2" stroke-linecap="round" stroke-dasharray="0.5 16"/>
<line x1="1233" y1="1" x2="1233" y2="560" stroke="white" stroke-opacity="0.15" stroke-width="2" stroke-linecap="round" stroke-dasharray="0.5 16"/>
<line x1="1249" y1="1" x2="1249" y2="560" stroke="white" stroke-opacity="0.15" stroke-width="2" stroke-linecap="round" stroke-dasharray="0.5 16"/>
<line x1="1265" y1="1" x2="1265" y2="560" stroke="white" stroke-opacity="0.15" stroke-width="2" stroke-linecap="round" stroke-dasharray="0.5 16"/>
<line x1="1281" y1="1" x2="1281" y2="560" stroke="white" stroke-opacity="0.15" stroke-width="2" stroke-linecap="round" stroke-dasharray="0.5 16"/>
<line x1="1297" y1="1" x2="1297" y2="560" stroke="white" stroke-opacity="0.15" stroke-width="2" stroke-linecap="round" stroke-dasharray="0.5 16"/>
<line x1="1313" y1="1" x2="1313" y2="560" stroke="white" stroke-opacity="0.15" stroke-width="2" stroke-linecap="round" stroke-dasharray="0.5 16"/>
<line x1="1329" y1="1" x2="1329" y2="560" stroke="white" stroke-opacity="0.15" stroke-width="2" stroke-linecap="round" stroke-dasharray="0.5 16"/>
<line x1="1345" y1="1" x2="1345" y2="560" stroke="white" stroke-opacity="0.15" stroke-width="2" stroke-linecap="round" stroke-dasharray="0.5 16"/>
<line x1="1361" y1="1" x2="1361" y2="560" stroke="white" stroke-opacity="0.15" stroke-width="2" stroke-linecap="round" stroke-dasharray="0.5 16"/>
<line x1="1377" y1="1" x2="1377" y2="560" stroke="white" stroke-opacity="0.15" stroke-width="2" stroke-linecap="round" stroke-dasharray="0.5 16"/>
<line x1="1393" y1="1" x2="1393" y2="560" stroke="white" stroke-opacity="0.15" stroke-width="2" stroke-linecap="round" stroke-dasharray="0.5 16"/>
<line x1="1409" y1="1" x2="1409" y2="560" stroke="white" stroke-opacity="0.15" stroke-width="2" stroke-linecap="round" stroke-dasharray="0.5 16"/>
<line x1="1425" y1="1" x2="1425" y2="560" stroke="white" stroke-opacity="0.15" stroke-width="2" stroke-linecap="round" stroke-dasharray="0.5 16"/>
<line x1="1441" y1="1" x2="1441" y2="560" stroke="white" stroke-opacity="0.15" stroke-width="2" stroke-linecap="round" stroke-dasharray="0.5 16"/>
<line x1="1457" y1="1" x2="1457" y2="560" stroke="white" stroke-opacity="0.15" stroke-width="2" stroke-linecap="round" stroke-dasharray="0.5 16"/>
<line x1="1473" y1="1" x2="1473" y2="560" stroke="white" stroke-opacity="0.15" stroke-width="2" stroke-linecap="round" stroke-dasharray="0.5 16"/>
<line x1="1489" y1="1" x2="1489" y2="560" stroke="white" stroke-opacity="0.15" stroke-width="2" stroke-linecap="round" stroke-dasharray="0.5 16"/>
<line x1="1" y1="576" x2="0.999976" y2="1135" stroke="white" stroke-opacity="0.15" stroke-width="2" stroke-linecap="round" stroke-dasharray="0.5 16"/>
<line x1="17" y1="576" x2="17" y2="1135" stroke="white" stroke-opacity="0.15" stroke-width="2" stroke-linecap="round" stroke-dasharray="0.5 16"/>
<line x1="33" y1="576" x2="33" y2="1135" stroke="white" stroke-opacity="0.15" stroke-width="2" stroke-linecap="round" stroke-dasharray="0.5 16"/>
<line x1="49" y1="576" x2="49" y2="1135" stroke="white" stroke-opacity="0.15" stroke-width="2" stroke-linecap="round" stroke-dasharray="0.5 16"/>
<line x1="65" y1="576" x2="65" y2="1135" stroke="white" stroke-opacity="0.15" stroke-width="2" stroke-linecap="round" stroke-dasharray="0.5 16"/>
<line x1="81" y1="576" x2="81" y2="1135" stroke="white" stroke-opacity="0.15" stroke-width="2" stroke-linecap="round" stroke-dasharray="0.5 16"/>
<line x1="97" y1="576" x2="97" y2="1135" stroke="white" stroke-opacity="0.15" stroke-width="2" stroke-linecap="round" stroke-dasharray="0.5 16"/>
<line x1="113" y1="576" x2="113" y2="1135" stroke="white" stroke-opacity="0.15" stroke-width="2" stroke-linecap="round" stroke-dasharray="0.5 16"/>
<line x1="129" y1="576" x2="129" y2="1135" stroke="white" stroke-opacity="0.15" stroke-width="2" stroke-linecap="round" stroke-dasharray="0.5 16"/>
<line x1="145" y1="576" x2="145" y2="1135" stroke="white" stroke-opacity="0.15" stroke-width="2" stroke-linecap="round" stroke-dasharray="0.5 16"/>
<line x1="161" y1="576" x2="161" y2="1135" stroke="white" stroke-opacity="0.15" stroke-width="2" stroke-linecap="round" stroke-dasharray="0.5 16"/>
<line x1="177" y1="576" x2="177" y2="1135" stroke="white" stroke-opacity="0.15" stroke-width="2" stroke-linecap="round" stroke-dasharray="0.5 16"/>
<line x1="193" y1="576" x2="193" y2="1135" stroke="white" stroke-opacity="0.15" stroke-width="2" stroke-linecap="round" stroke-dasharray="0.5 16"/>
<line x1="209" y1="576" x2="209" y2="1135" stroke="white" stroke-opacity="0.15" stroke-width="2" stroke-linecap="round" stroke-dasharray="0.5 16"/>
<line x1="225" y1="576" x2="225" y2="1135" stroke="white" stroke-opacity="0.15" stroke-width="2" stroke-linecap="round" stroke-dasharray="0.5 16"/>
<line x1="241" y1="576" x2="241" y2="1135" stroke="white" stroke-opacity="0.15" stroke-width="2" stroke-linecap="round" stroke-dasharray="0.5 16"/>
<line x1="257" y1="576" x2="257" y2="1135" stroke="white" stroke-opacity="0.15" stroke-width="2" stroke-linecap="round" stroke-dasharray="0.5 16"/>
<line x1="273" y1="576" x2="273" y2="1135" stroke="white" stroke-opacity="0.15" stroke-width="2" stroke-linecap="round" stroke-dasharray="0.5 16"/>
<line x1="289" y1="576" x2="289" y2="1135" stroke="white" stroke-opacity="0.15" stroke-width="2" stroke-linecap="round" stroke-dasharray="0.5 16"/>
<line x1="305" y1="576" x2="305" y2="1135" stroke="white" stroke-opacity="0.15" stroke-width="2" stroke-linecap="round" stroke-dasharray="0.5 16"/>
<line x1="321" y1="576" x2="321" y2="1135" stroke="white" stroke-opacity="0.15" stroke-width="2" stroke-linecap="round" stroke-dasharray="0.5 16"/>
<line x1="337" y1="576" x2="337" y2="1135" stroke="white" stroke-opacity="0.15" stroke-width="2" stroke-linecap="round" stroke-dasharray="0.5 16"/>
<line x1="353" y1="576" x2="353" y2="1135" stroke="white" stroke-opacity="0.15" stroke-width="2" stroke-linecap="round" stroke-dasharray="0.5 16"/>
<line x1="369" y1="576" x2="369" y2="1135" stroke="white" stroke-opacity="0.15" stroke-width="2" stroke-linecap="round" stroke-dasharray="0.5 16"/>
<line x1="385" y1="576" x2="385" y2="1135" stroke="white" stroke-opacity="0.15" stroke-width="2" stroke-linecap="round" stroke-dasharray="0.5 16"/>
<line x1="401" y1="576" x2="401" y2="1135" stroke="white" stroke-opacity="0.15" stroke-width="2" stroke-linecap="round" stroke-dasharray="0.5 16"/>
<line x1="417" y1="576" x2="417" y2="1135" stroke="white" stroke-opacity="0.15" stroke-width="2" stroke-linecap="round" stroke-dasharray="0.5 16"/>
<line x1="433" y1="576" x2="433" y2="1135" stroke="white" stroke-opacity="0.15" stroke-width="2" stroke-linecap="round" stroke-dasharray="0.5 16"/>
<line x1="449" y1="576" x2="449" y2="1135" stroke="white" stroke-opacity="0.15" stroke-width="2" stroke-linecap="round" stroke-dasharray="0.5 16"/>
<line x1="465" y1="576" x2="465" y2="1135" stroke="white" stroke-opacity="0.15" stroke-width="2" stroke-linecap="round" stroke-dasharray="0.5 16"/>
<line x1="481" y1="576" x2="481" y2="1135" stroke="white" stroke-opacity="0.15" stroke-width="2" stroke-linecap="round" stroke-dasharray="0.5 16"/>
<line x1="497" y1="576" x2="497" y2="1135" stroke="white" stroke-opacity="0.15" stroke-width="2" stroke-linecap="round" stroke-dasharray="0.5 16"/>
<line x1="513" y1="576" x2="513" y2="1135" stroke="white" stroke-opacity="0.15" stroke-width="2" stroke-linecap="round" stroke-dasharray="0.5 16"/>
<line x1="529" y1="576" x2="529" y2="1135" stroke="white" stroke-opacity="0.15" stroke-width="2" stroke-linecap="round" stroke-dasharray="0.5 16"/>
<line x1="545" y1="576" x2="545" y2="1135" stroke="white" stroke-opacity="0.15" stroke-width="2" stroke-linecap="round" stroke-dasharray="0.5 16"/>
<line x1="561" y1="576" x2="561" y2="1135" stroke="white" stroke-opacity="0.15" stroke-width="2" stroke-linecap="round" stroke-dasharray="0.5 16"/>
<line x1="577" y1="576" x2="577" y2="1135" stroke="white" stroke-opacity="0.15" stroke-width="2" stroke-linecap="round" stroke-dasharray="0.5 16"/>
<line x1="593" y1="576" x2="593" y2="1135" stroke="white" stroke-opacity="0.15" stroke-width="2" stroke-linecap="round" stroke-dasharray="0.5 16"/>
<line x1="609" y1="576" x2="609" y2="1135" stroke="white" stroke-opacity="0.15" stroke-width="2" stroke-linecap="round" stroke-dasharray="0.5 16"/>
<line x1="625" y1="576" x2="625" y2="1135" stroke="white" stroke-opacity="0.15" stroke-width="2" stroke-linecap="round" stroke-dasharray="0.5 16"/>
<line x1="641" y1="576" x2="641" y2="1135" stroke="white" stroke-opacity="0.15" stroke-width="2" stroke-linecap="round" stroke-dasharray="0.5 16"/>
<line x1="657" y1="576" x2="657" y2="1135" stroke="white" stroke-opacity="0.15" stroke-width="2" stroke-linecap="round" stroke-dasharray="0.5 16"/>
<line x1="673" y1="576" x2="673" y2="1135" stroke="white" stroke-opacity="0.15" stroke-width="2" stroke-linecap="round" stroke-dasharray="0.5 16"/>
<line x1="689" y1="576" x2="689" y2="1135" stroke="white" stroke-opacity="0.15" stroke-width="2" stroke-linecap="round" stroke-dasharray="0.5 16"/>
<line x1="705" y1="576" x2="705" y2="1135" stroke="white" stroke-opacity="0.15" stroke-width="2" stroke-linecap="round" stroke-dasharray="0.5 16"/>
<line x1="721" y1="576" x2="721" y2="1135" stroke="white" stroke-opacity="0.15" stroke-width="2" stroke-linecap="round" stroke-dasharray="0.5 16"/>
<line x1="737" y1="576" x2="737" y2="1135" stroke="white" stroke-opacity="0.15" stroke-width="2" stroke-linecap="round" stroke-dasharray="0.5 16"/>
<line x1="753" y1="576" x2="753" y2="1135" stroke="white" stroke-opacity="0.15" stroke-width="2" stroke-linecap="round" stroke-dasharray="0.5 16"/>
<line x1="769" y1="576" x2="769" y2="1135" stroke="white" stroke-opacity="0.15" stroke-width="2" stroke-linecap="round" stroke-dasharray="0.5 16"/>
<line x1="785" y1="576" x2="785" y2="1135" stroke="white" stroke-opacity="0.15" stroke-width="2" stroke-linecap="round" stroke-dasharray="0.5 16"/>
<line x1="801" y1="576" x2="801" y2="1135" stroke="white" stroke-opacity="0.15" stroke-width="2" stroke-linecap="round" stroke-dasharray="0.5 16"/>
<line x1="817" y1="576" x2="817" y2="1135" stroke="white" stroke-opacity="0.15" stroke-width="2" stroke-linecap="round" stroke-dasharray="0.5 16"/>
<line x1="833" y1="576" x2="833" y2="1135" stroke="white" stroke-opacity="0.15" stroke-width="2" stroke-linecap="round" stroke-dasharray="0.5 16"/>
<line x1="849" y1="576" x2="849" y2="1135" stroke="white" stroke-opacity="0.15" stroke-width="2" stroke-linecap="round" stroke-dasharray="0.5 16"/>
<line x1="865" y1="576" x2="865" y2="1135" stroke="white" stroke-opacity="0.15" stroke-width="2" stroke-linecap="round" stroke-dasharray="0.5 16"/>
<line x1="881" y1="576" x2="881" y2="1135" stroke="white" stroke-opacity="0.15" stroke-width="2" stroke-linecap="round" stroke-dasharray="0.5 16"/>
<line x1="897" y1="576" x2="897" y2="1135" stroke="white" stroke-opacity="0.15" stroke-width="2" stroke-linecap="round" stroke-dasharray="0.5 16"/>
<line x1="913" y1="576" x2="913" y2="1135" stroke="white" stroke-opacity="0.15" stroke-width="2" stroke-linecap="round" stroke-dasharray="0.5 16"/>
<line x1="929" y1="576" x2="929" y2="1135" stroke="white" stroke-opacity="0.15" stroke-width="2" stroke-linecap="round" stroke-dasharray="0.5 16"/>
<line x1="945" y1="576" x2="945" y2="1135" stroke="white" stroke-opacity="0.15" stroke-width="2" stroke-linecap="round" stroke-dasharray="0.5 16"/>
<line x1="961" y1="576" x2="961" y2="1135" stroke="white" stroke-opacity="0.15" stroke-width="2" stroke-linecap="round" stroke-dasharray="0.5 16"/>
<line x1="977" y1="576" x2="977" y2="1135" stroke="white" stroke-opacity="0.15" stroke-width="2" stroke-linecap="round" stroke-dasharray="0.5 16"/>
<line x1="993" y1="576" x2="993" y2="1135" stroke="white" stroke-opacity="0.15" stroke-width="2" stroke-linecap="round" stroke-dasharray="0.5 16"/>
<line x1="1009" y1="576" x2="1009" y2="1135" stroke="white" stroke-opacity="0.15" stroke-width="2" stroke-linecap="round" stroke-dasharray="0.5 16"/>
<line x1="1025" y1="576" x2="1025" y2="1135" stroke="white" stroke-opacity="0.15" stroke-width="2" stroke-linecap="round" stroke-dasharray="0.5 16"/>
<line x1="1041" y1="576" x2="1041" y2="1135" stroke="white" stroke-opacity="0.15" stroke-width="2" stroke-linecap="round" stroke-dasharray="0.5 16"/>
<line x1="1057" y1="576" x2="1057" y2="1135" stroke="white" stroke-opacity="0.15" stroke-width="2" stroke-linecap="round" stroke-dasharray="0.5 16"/>
<line x1="1073" y1="576" x2="1073" y2="1135" stroke="white" stroke-opacity="0.15" stroke-width="2" stroke-linecap="round" stroke-dasharray="0.5 16"/>
<line x1="1089" y1="576" x2="1089" y2="1135" stroke="white" stroke-opacity="0.15" stroke-width="2" stroke-linecap="round" stroke-dasharray="0.5 16"/>
<line x1="1105" y1="576" x2="1105" y2="1135" stroke="white" stroke-opacity="0.15" stroke-width="2" stroke-linecap="round" stroke-dasharray="0.5 16"/>
<line x1="1121" y1="576" x2="1121" y2="1135" stroke="white" stroke-opacity="0.15" stroke-width="2" stroke-linecap="round" stroke-dasharray="0.5 16"/>
<line x1="1137" y1="576" x2="1137" y2="1135" stroke="white" stroke-opacity="0.15" stroke-width="2" stroke-linecap="round" stroke-dasharray="0.5 16"/>
<line x1="1153" y1="576" x2="1153" y2="1135" stroke="white" stroke-opacity="0.15" stroke-width="2" stroke-linecap="round" stroke-dasharray="0.5 16"/>
<line x1="1169" y1="576" x2="1169" y2="1135" stroke="white" stroke-opacity="0.15" stroke-width="2" stroke-linecap="round" stroke-dasharray="0.5 16"/>
<line x1="1185" y1="576" x2="1185" y2="1135" stroke="white" stroke-opacity="0.15" stroke-width="2" stroke-linecap="round" stroke-dasharray="0.5 16"/>
<line x1="1201" y1="576" x2="1201" y2="1135" stroke="white" stroke-opacity="0.15" stroke-width="2" stroke-linecap="round" stroke-dasharray="0.5 16"/>
<line x1="1217" y1="576" x2="1217" y2="1135" stroke="white" stroke-opacity="0.15" stroke-width="2" stroke-linecap="round" stroke-dasharray="0.5 16"/>
<line x1="1233" y1="576" x2="1233" y2="1135" stroke="white" stroke-opacity="0.15" stroke-width="2" stroke-linecap="round" stroke-dasharray="0.5 16"/>
<line x1="1249" y1="576" x2="1249" y2="1135" stroke="white" stroke-opacity="0.15" stroke-width="2" stroke-linecap="round" stroke-dasharray="0.5 16"/>
<line x1="1265" y1="576" x2="1265" y2="1135" stroke="white" stroke-opacity="0.15" stroke-width="2" stroke-linecap="round" stroke-dasharray="0.5 16"/>
<line x1="1281" y1="576" x2="1281" y2="1135" stroke="white" stroke-opacity="0.15" stroke-width="2" stroke-linecap="round" stroke-dasharray="0.5 16"/>
<line x1="1297" y1="576" x2="1297" y2="1135" stroke="white" stroke-opacity="0.15" stroke-width="2" stroke-linecap="round" stroke-dasharray="0.5 16"/>
<line x1="1313" y1="576" x2="1313" y2="1135" stroke="white" stroke-opacity="0.15" stroke-width="2" stroke-linecap="round" stroke-dasharray="0.5 16"/>
<line x1="1329" y1="576" x2="1329" y2="1135" stroke="white" stroke-opacity="0.15" stroke-width="2" stroke-linecap="round" stroke-dasharray="0.5 16"/>
<line x1="1345" y1="576" x2="1345" y2="1135" stroke="white" stroke-opacity="0.15" stroke-width="2" stroke-linecap="round" stroke-dasharray="0.5 16"/>
<line x1="1361" y1="576" x2="1361" y2="1135" stroke="white" stroke-opacity="0.15" stroke-width="2" stroke-linecap="round" stroke-dasharray="0.5 16"/>
<line x1="1377" y1="576" x2="1377" y2="1135" stroke="white" stroke-opacity="0.15" stroke-width="2" stroke-linecap="round" stroke-dasharray="0.5 16"/>
<line x1="1393" y1="576" x2="1393" y2="1135" stroke="white" stroke-opacity="0.15" stroke-width="2" stroke-linecap="round" stroke-dasharray="0.5 16"/>
<line x1="1409" y1="576" x2="1409" y2="1135" stroke="white" stroke-opacity="0.15" stroke-width="2" stroke-linecap="round" stroke-dasharray="0.5 16"/>
<line x1="1425" y1="576" x2="1425" y2="1135" stroke="white" stroke-opacity="0.15" stroke-width="2" stroke-linecap="round" stroke-dasharray="0.5 16"/>
<line x1="1441" y1="576" x2="1441" y2="1135" stroke="white" stroke-opacity="0.15" stroke-width="2" stroke-linecap="round" stroke-dasharray="0.5 16"/>
<line x1="1457" y1="576" x2="1457" y2="1135" stroke="white" stroke-opacity="0.15" stroke-width="2" stroke-linecap="round" stroke-dasharray="0.5 16"/>
<line x1="1473" y1="576" x2="1473" y2="1135" stroke="white" stroke-opacity="0.15" stroke-width="2" stroke-linecap="round" stroke-dasharray="0.5 16"/>
<line x1="1489" y1="576" x2="1489" y2="1135" stroke="white" stroke-opacity="0.15" stroke-width="2" stroke-linecap="round" stroke-dasharray="0.5 16"/>
</g>
</svg>
