<svg width="2091" height="1429" viewBox="0 0 2091 1429" fill="none" xmlns="http://www.w3.org/2000/svg">
<g filter="url(#filter0_f_89_1117)">
<path d="M1132.05 501.633C1460.66 487.886 1716.07 606.085 1525 754.827C1352.99 888.732 974.622 955.953 733.362 917.979C483.813 878.7 397.893 718.015 660.979 598.717C812.329 530.087 956.011 508.998 1132.05 501.633Z" fill="url(#paint0_radial_89_1117)" fill-opacity="0.1"/>
<path d="M1132.05 501.633C1460.66 487.886 1716.07 606.085 1525 754.827C1352.99 888.732 974.622 955.953 733.362 917.979C483.813 878.7 397.893 718.015 660.979 598.717C812.329 530.087 956.011 508.998 1132.05 501.633Z" fill="url(#paint1_linear_89_1117)" fill-opacity="0.2"/>
<path d="M1132.05 501.633C1460.66 487.886 1716.07 606.085 1525 754.827C1352.99 888.732 974.622 955.953 733.362 917.979C483.813 878.7 397.893 718.015 660.979 598.717C812.329 530.087 956.011 508.998 1132.05 501.633Z" fill="url(#paint2_radial_89_1117)" fill-opacity="0.1"/>
</g>
<defs>
<filter id="filter0_f_89_1117" x="0.431641" y="0.544434" width="2090.15" height="1427.95" filterUnits="userSpaceOnUse" color-interpolation-filters="sRGB">
<feFlood flood-opacity="0" result="BackgroundImageFix"/>
<feBlend mode="normal" in="SourceGraphic" in2="BackgroundImageFix" result="shape"/>
<feGaussianBlur stdDeviation="250" result="effect1_foregroundBlur_89_1117"/>
</filter>
<radialGradient id="paint0_radial_89_1117" cx="0" cy="0" r="1" gradientUnits="userSpaceOnUse" gradientTransform="translate(582.404 1018.96) rotate(-45.4309) scale(472.146 727.968)">
<stop offset="0.0350108" stop-color="#F2BDB6"/>
<stop offset="1" stop-color="#B50010"/>
</radialGradient>
<linearGradient id="paint1_linear_89_1117" x1="3126.74" y1="880.949" x2="541.119" y2="252.559" gradientUnits="userSpaceOnUse">
<stop offset="0.48522" stop-color="#6E87E3"/>
<stop offset="0.976907" stop-color="#F11D1F"/>
</linearGradient>
<radialGradient id="paint2_radial_89_1117" cx="0" cy="0" r="1" gradientUnits="userSpaceOnUse" gradientTransform="translate(420.693 656.692) rotate(0.347925) scale(854.816 351.845)">
<stop offset="0.0127809" stop-color="#D8908E"/>
<stop offset="1" stop-color="#C37766" stop-opacity="0"/>
</radialGradient>
</defs>
</svg>
