<svg width="927" height="950" viewBox="0 0 927 950" fill="none" xmlns="http://www.w3.org/2000/svg">
<g opacity="0.2">
<path d="M463.678 464.195C435.331 463.196 412.183 467.174 411.975 473.08C411.767 478.985 434.578 484.582 462.924 485.581C491.271 486.58 514.419 482.602 514.627 476.696C514.835 470.791 492.024 465.194 463.678 464.195Z" stroke="url(#paint0_linear_89_1170)" stroke-miterlimit="10"/>
<path d="M463.463 463.8C432.837 463.324 407.933 467.888 407.838 473.994C407.743 480.099 432.493 485.434 463.119 485.91C493.745 486.385 518.649 481.822 518.744 475.716C518.839 469.611 494.089 464.275 463.463 463.8Z" stroke="url(#paint1_linear_89_1170)" stroke-miterlimit="10"/>
<path d="M463.108 463.41C430.015 463.527 403.206 468.732 403.229 475.036C403.251 481.339 430.096 486.354 463.189 486.237C496.282 486.119 523.091 480.914 523.069 474.611C523.047 468.307 496.201 463.293 463.108 463.41Z" stroke="url(#paint2_linear_89_1170)" stroke-miterlimit="10"/>
<path d="M463.191 463.089C427.549 463.873 398.771 469.776 398.914 476.274C399.057 482.773 428.066 487.405 463.708 486.622C499.35 485.838 528.128 479.935 527.985 473.436C527.843 466.938 498.833 462.306 463.191 463.089Z" stroke="url(#paint3_linear_89_1170)" stroke-miterlimit="10"/>
<path d="M462.789 462.66C424.507 464.189 393.69 470.854 393.958 477.546C394.225 484.238 425.475 488.423 463.757 486.893C502.039 485.363 532.855 478.698 532.588 472.007C532.321 465.315 501.07 461.13 462.789 462.66Z" stroke="url(#paint4_linear_89_1170)" stroke-miterlimit="10"/>
<path d="M462.575 462.435C421.476 464.799 388.479 472.294 388.875 479.177C389.27 486.059 422.909 489.723 464.008 487.359C505.108 484.996 538.105 477.501 537.709 470.618C537.313 463.735 503.675 460.072 462.575 462.435Z" stroke="url(#paint5_linear_89_1170)" stroke-miterlimit="10"/>
<path d="M462.53 461.897C418.533 465.178 383.3 473.65 383.834 480.819C384.369 487.988 420.469 491.14 464.467 487.859C508.464 484.577 543.697 476.105 543.163 468.936C542.628 461.767 506.528 458.615 462.53 461.897Z" stroke="url(#paint6_linear_89_1170)" stroke-miterlimit="10"/>
<path d="M462.237 461.42C415.162 465.721 377.552 475.25 378.233 482.704C378.914 490.157 417.628 492.713 464.703 488.411C511.778 484.11 549.387 474.581 548.706 467.127C548.025 459.674 509.312 457.119 462.237 461.42Z" stroke="url(#paint7_linear_89_1170)" stroke-miterlimit="10"/>
<path d="M461.808 460.926C411.675 466.334 371.71 476.989 372.544 484.725C373.379 492.46 414.697 494.347 464.83 488.938C514.964 483.53 554.929 472.875 554.094 465.139C553.26 457.404 511.942 455.517 461.808 460.926Z" stroke="url(#paint8_linear_89_1170)" stroke-miterlimit="10"/>
<path d="M461.601 460.187C408.237 466.806 365.782 478.668 366.776 486.683C367.77 494.697 411.837 495.829 465.201 489.21C518.566 482.591 561.02 470.728 560.026 462.714C559.032 454.699 514.966 453.568 461.601 460.187Z" stroke="url(#paint9_linear_89_1170)" stroke-miterlimit="10"/>
<path d="M461.008 459.634C404.241 467.59 359.174 480.84 360.35 489.228C361.526 497.616 408.498 497.967 465.266 490.011C522.033 482.055 567.1 468.805 565.924 460.417C564.748 452.029 517.776 451.678 461.008 459.634Z" stroke="url(#paint10_linear_89_1170)" stroke-miterlimit="10"/>
<path d="M460.94 458.935C400.804 468.316 353.162 483.02 354.528 491.778C355.894 500.535 405.751 500.03 465.887 490.649C526.023 481.268 573.666 466.564 572.3 457.806C570.934 449.048 521.076 449.554 460.94 458.935Z" stroke="url(#paint11_linear_89_1170)" stroke-miterlimit="10"/>
<path d="M460.658 458.427C396.988 469.368 346.644 485.632 348.212 494.756C349.78 503.879 402.665 502.406 466.335 491.466C530.005 480.526 580.348 464.261 578.781 455.138C577.213 446.014 524.328 447.487 460.658 458.427Z" stroke="url(#paint12_linear_89_1170)" stroke-miterlimit="10"/>
<path d="M460.075 457.759C392.8 470.378 339.706 488.299 341.485 497.785C343.265 507.271 399.244 504.731 466.519 492.111C533.793 479.492 586.888 461.571 585.108 452.085C583.329 442.599 527.349 445.139 460.075 457.759Z" stroke="url(#paint13_linear_89_1170)" stroke-miterlimit="10"/>
<path d="M459.623 456.791C388.588 471.23 332.641 490.993 334.662 500.934C336.682 510.875 395.905 507.229 466.94 492.791C537.975 478.352 593.923 458.589 591.902 448.648C589.881 438.707 530.658 442.353 459.623 456.791Z" stroke="url(#paint14_linear_89_1170)" stroke-miterlimit="10"/>
<path d="M459.209 455.845C384.458 472.216 325.722 493.989 328.018 504.475C330.315 514.961 392.774 510.191 467.526 493.819C542.277 477.448 601.013 455.675 598.717 445.189C596.42 434.702 533.96 439.473 459.209 455.845Z" stroke="url(#paint15_linear_89_1170)" stroke-miterlimit="10"/>
<path d="M458.502 454.88C379.975 473.323 318.416 497.213 321.006 508.239C323.595 519.265 389.353 513.253 467.881 494.81C546.408 476.366 607.967 452.477 605.377 441.45C602.788 430.424 537.029 436.436 458.502 454.88Z" stroke="url(#paint16_linear_89_1170)" stroke-miterlimit="10"/>
<path d="M457.943 453.932C375.595 474.587 311.189 500.701 314.089 512.26C316.988 523.82 386.094 516.447 468.442 495.792C550.79 475.138 615.197 449.024 612.297 437.464C609.398 425.905 540.291 433.278 457.943 453.932Z" stroke="url(#paint17_linear_89_1170)" stroke-miterlimit="10"/>
<path d="M457.514 452.735C371.209 475.768 303.881 504.315 307.131 516.494C310.382 528.674 382.981 519.875 469.286 496.841C555.591 473.808 622.92 445.261 619.669 433.082C616.418 420.902 543.819 429.701 457.514 452.735Z" stroke="url(#paint18_linear_89_1170)" stroke-miterlimit="10"/>
<path d="M456.737 451.642C366.621 477.167 296.504 508.23 300.127 521.022C303.751 533.815 379.742 523.493 469.859 497.968C559.975 472.444 630.092 441.381 626.469 428.589C622.845 415.796 546.854 426.118 456.737 451.642Z" stroke="url(#paint19_linear_89_1170)" stroke-miterlimit="10"/>
<path d="M455.935 450.348C361.883 478.553 288.941 512.431 293.015 526.015C297.089 539.599 376.636 527.746 470.688 499.541C564.74 471.335 637.682 437.457 633.608 423.873C629.534 410.289 549.987 422.142 455.935 450.348Z" stroke="url(#paint20_linear_89_1170)" stroke-miterlimit="10"/>
<path d="M455.135 448.994C357.209 480.016 281.49 516.733 286.011 531.004C290.531 545.275 373.581 531.696 471.506 500.674C569.432 469.653 645.151 432.936 640.631 418.665C636.11 404.394 553.06 417.973 455.135 448.994Z" stroke="url(#paint21_linear_89_1170)" stroke-miterlimit="10"/>
<path d="M454.16 447.631C352.44 481.624 274.078 521.447 279.135 536.579C284.191 551.711 370.752 536.422 472.472 502.429C574.193 468.437 652.555 428.613 647.498 413.481C642.442 398.349 555.881 413.639 454.16 447.631Z" stroke="url(#paint22_linear_89_1170)" stroke-miterlimit="10"/>
<path d="M453.07 445.662C347.53 482.795 266.557 525.927 272.212 541.999C277.867 558.072 368.008 540.999 473.548 503.866C579.088 466.733 660.06 423.602 654.405 407.529C648.75 391.457 558.609 408.53 453.07 445.662Z" stroke="url(#paint23_linear_89_1170)" stroke-miterlimit="10"/>
<path d="M452.048 444.079C342.88 484.486 259.48 531.018 265.77 548.012C272.06 565.006 365.658 546.027 474.827 505.62C583.995 465.213 667.395 418.681 661.105 401.686C654.815 384.692 561.217 403.672 452.048 444.079Z" stroke="url(#paint24_linear_89_1170)" stroke-miterlimit="10"/>
<path d="M450.535 442.302C337.732 486.19 251.99 536.427 259.025 554.509C266.06 572.59 363.208 551.67 476.011 507.781C588.815 463.892 674.557 413.655 667.522 395.574C660.487 377.492 563.338 398.413 450.535 442.302Z" stroke="url(#paint25_linear_89_1170)" stroke-miterlimit="10"/>
<path d="M449.082 440.098C332.839 487.589 244.977 541.683 252.836 560.92C260.696 580.157 361.3 557.253 477.543 509.761C593.786 462.27 681.648 408.176 673.789 388.939C665.93 369.702 565.325 392.607 449.082 440.098Z" stroke="url(#paint26_linear_89_1170)" stroke-miterlimit="10"/>
<path d="M447.462 437.587C327.893 488.855 238.104 547.072 246.914 567.619C255.724 588.165 359.796 563.261 479.365 511.994C598.935 460.726 688.723 402.51 679.914 381.963C671.104 361.416 567.032 386.32 447.462 437.587Z" stroke="url(#paint27_linear_89_1170)" stroke-miterlimit="10"/>
<path d="M445.611 435.379C323.017 490.537 231.596 552.945 241.416 574.769C251.235 596.593 358.577 569.57 481.17 514.411C603.763 459.253 695.184 396.846 685.365 375.022C675.545 353.197 568.204 380.22 445.611 435.379Z" stroke="url(#paint28_linear_89_1170)" stroke-miterlimit="10"/>
<path d="M443.519 432.713C318.036 491.946 225.241 558.878 236.255 582.211C247.269 605.545 357.922 576.443 483.405 517.21C608.887 457.978 701.683 391.045 690.669 367.712C679.654 344.379 569.002 373.481 443.519 432.713Z" stroke="url(#paint29_linear_89_1170)" stroke-miterlimit="10"/>
<path d="M440.894 429.759C312.743 493.22 218.883 564.913 231.252 589.89C243.621 614.867 357.535 583.669 485.685 520.208C613.836 456.747 707.696 385.054 695.327 360.077C682.958 335.1 569.045 366.298 440.894 429.759Z" stroke="url(#paint30_linear_89_1170)" stroke-miterlimit="10"/>
<path d="M438.121 426.669C307.548 494.508 212.924 571.112 226.774 597.768C240.623 624.425 357.701 591.04 488.274 523.2C618.847 455.361 713.47 378.757 699.621 352.101C685.771 325.444 568.694 358.83 438.121 426.669Z" stroke="url(#paint31_linear_89_1170)" stroke-miterlimit="10"/>
<path d="M434.969 423.103C302.41 495.383 207.601 577.179 223.208 605.801C238.814 634.422 358.925 599.031 491.485 526.752C624.044 454.472 718.852 372.676 703.246 344.054C687.64 315.432 567.528 350.824 434.969 423.103Z" stroke="url(#paint32_linear_89_1170)" stroke-miterlimit="10"/>
<path d="M431.546 419.407C297.266 496.275 202.611 583.395 220.128 613.995C237.645 644.595 360.7 607.086 494.98 530.218C629.26 453.35 723.915 366.23 706.398 335.63C688.882 305.03 565.826 342.538 431.546 419.407Z" stroke="url(#paint33_linear_89_1170)" stroke-miterlimit="10"/>
<path d="M427.711 415.536C292.092 497.106 198.158 589.845 217.903 622.673C237.649 655.502 363.596 615.989 499.215 534.419C634.834 452.849 728.769 360.11 709.023 327.281C689.278 294.452 563.33 333.965 427.711 415.536Z" stroke="url(#paint34_linear_89_1170)" stroke-miterlimit="10"/>
<path d="M422.978 410.835C286.376 497.198 193.728 595.822 216.043 631.117C238.358 666.412 367.184 625.013 503.786 538.649C640.388 452.285 733.035 353.662 710.721 318.367C688.406 283.072 559.579 324.471 422.978 410.835Z" stroke="url(#paint35_linear_89_1170)" stroke-miterlimit="10"/>
<path d="M417.639 406.185C280.536 497.396 189.824 602.048 215.027 639.932C240.23 677.816 371.805 634.585 508.907 543.374C646.01 452.163 736.723 347.511 711.52 309.628C686.317 271.744 554.742 314.974 417.639 406.185Z" stroke="url(#paint36_linear_89_1170)" stroke-miterlimit="10"/>
<path d="M411.54 401.086C274.342 497.229 186.261 608.187 214.804 648.919C243.347 689.651 377.706 644.732 514.904 548.589C652.102 452.447 740.183 341.488 711.64 300.757C683.097 260.025 548.738 304.944 411.54 401.086Z" stroke="url(#paint37_linear_89_1170)" stroke-miterlimit="10"/>
<path d="M404.901 395.789C268.118 496.874 183.426 614.262 215.736 657.981C248.046 701.701 385.122 655.198 521.905 554.112C658.688 453.027 743.38 335.64 711.07 291.92C678.76 248.2 541.684 294.704 404.901 395.789Z" stroke="url(#paint38_linear_89_1170)" stroke-miterlimit="10"/>
<path d="M396.99 389.615C261.112 495.631 180.722 619.717 217.434 666.77C254.145 713.822 394.057 666.023 529.935 560.007C665.812 453.992 746.202 329.905 709.49 282.853C672.779 235.8 532.867 283.6 396.99 389.615Z" stroke="url(#paint39_linear_89_1170)" stroke-miterlimit="10"/>
<path d="M387.952 383.467C253.493 494.403 178.281 625.286 219.96 675.803C261.639 726.32 404.427 677.341 538.886 566.405C673.345 455.47 748.558 324.586 706.879 274.069C665.2 223.552 522.411 272.531 387.952 383.467Z" stroke="url(#paint40_linear_89_1170)" stroke-miterlimit="10"/>
<path d="M377.538 376.532C245.006 492.322 176.017 630.198 223.448 684.486C270.878 738.775 416.767 688.918 549.299 573.128C681.831 457.338 750.82 319.462 703.389 265.174C655.959 210.885 510.07 260.742 377.538 376.532Z" stroke="url(#paint41_linear_89_1170)" stroke-miterlimit="10"/>
<path d="M365.53 369.323C235.439 489.893 173.774 634.888 227.8 693.18C281.825 751.472 431.081 700.987 561.173 580.418C691.264 459.849 752.929 314.853 698.903 256.561C644.878 198.269 495.622 248.754 365.53 369.323Z" stroke="url(#paint42_linear_89_1170)" stroke-miterlimit="10"/>
<path d="M352.007 361.779C224.805 487.072 171.605 639.32 233.18 701.834C294.756 764.347 447.791 713.454 574.993 588.16C702.195 462.866 755.395 310.618 693.82 248.105C632.244 185.591 479.209 236.485 352.007 361.779Z" stroke="url(#paint43_linear_89_1170)" stroke-miterlimit="10"/>
<path d="M336.225 353.648C212.391 483.51 168.917 643.055 239.122 710.001C309.327 776.948 466.627 725.945 590.461 596.083C714.294 466.221 757.769 306.676 687.564 239.729C617.358 172.783 460.059 223.786 336.225 353.648Z" stroke="url(#paint44_linear_89_1170)" stroke-miterlimit="10"/>
<path d="M318.447 345.374C198.478 479.606 166.109 646.413 246.149 717.949C326.189 789.484 488.328 738.658 608.298 604.426C728.267 470.194 760.636 303.387 680.596 231.851C600.556 160.316 438.417 211.142 318.447 345.374Z" stroke="url(#paint45_linear_89_1170)" stroke-miterlimit="10"/>
<path d="M298.025 336.587C182.249 475.089 162.45 649.271 253.802 725.634C345.154 801.997 513.065 751.624 628.841 613.122C744.617 474.619 764.417 300.437 673.064 224.074C581.712 147.711 413.801 198.085 298.025 336.587Z" stroke="url(#paint46_linear_89_1170)" stroke-miterlimit="10"/>
<path d="M274.751 327.907C163.536 470.486 157.8 651.919 261.938 733.149C366.076 814.379 540.654 764.647 651.868 622.068C763.083 479.49 768.82 298.057 664.681 216.827C560.543 135.597 385.965 185.329 274.751 327.907Z" stroke="url(#paint47_linear_89_1170)" stroke-miterlimit="10"/>
<path d="M248.677 318.922C142.373 465.305 152.384 653.823 271.037 739.988C389.689 826.153 572.052 777.337 678.355 630.954C784.658 484.571 774.647 296.053 655.995 209.888C537.342 123.723 354.98 172.539 248.677 318.922Z" stroke="url(#paint48_linear_89_1170)" stroke-miterlimit="10"/>
<path d="M218.727 310.013C117.501 460.088 144.921 655.594 279.972 746.686C415.024 837.779 606.565 789.965 707.791 639.889C809.018 489.814 781.597 294.309 646.546 203.216C511.495 112.123 319.953 159.938 218.727 310.013Z" stroke="url(#paint49_linear_89_1170)" stroke-miterlimit="10"/>
<path d="M627.214 191.019C470.449 100.51 269.995 154.222 179.486 310.987C88.978 467.752 142.69 668.207 299.455 758.715C456.22 849.223 656.674 795.512 747.183 638.747C837.691 481.982 783.979 281.527 627.214 191.019Z" stroke="url(#paint50_linear_89_1170)" stroke-miterlimit="10"/>
</g>
<defs>
<linearGradient id="paint0_linear_89_1170" x1="462.924" y1="485.581" x2="463.678" y2="464.195" gradientUnits="userSpaceOnUse">
<stop stop-color="#634A4A"/>
<stop offset="1" stop-color="#2F2929"/>
</linearGradient>
<linearGradient id="paint1_linear_89_1170" x1="463.119" y1="485.91" x2="463.463" y2="463.8" gradientUnits="userSpaceOnUse">
<stop stop-color="#634A4A"/>
<stop offset="1" stop-color="#2F2929"/>
</linearGradient>
<linearGradient id="paint2_linear_89_1170" x1="463.189" y1="486.237" x2="463.108" y2="463.41" gradientUnits="userSpaceOnUse">
<stop stop-color="#634A4A"/>
<stop offset="1" stop-color="#2F2929"/>
</linearGradient>
<linearGradient id="paint3_linear_89_1170" x1="463.708" y1="486.622" x2="463.191" y2="463.089" gradientUnits="userSpaceOnUse">
<stop stop-color="#634A4A"/>
<stop offset="1" stop-color="#2F2929"/>
</linearGradient>
<linearGradient id="paint4_linear_89_1170" x1="463.757" y1="486.893" x2="462.789" y2="462.66" gradientUnits="userSpaceOnUse">
<stop stop-color="#634A4A"/>
<stop offset="1" stop-color="#2F2929"/>
</linearGradient>
<linearGradient id="paint5_linear_89_1170" x1="464.009" y1="487.359" x2="462.575" y2="462.435" gradientUnits="userSpaceOnUse">
<stop stop-color="#634A4A"/>
<stop offset="1" stop-color="#2F2929"/>
</linearGradient>
<linearGradient id="paint6_linear_89_1170" x1="464.467" y1="487.859" x2="462.53" y2="461.897" gradientUnits="userSpaceOnUse">
<stop stop-color="#634A4A"/>
<stop offset="1" stop-color="#2F2929"/>
</linearGradient>
<linearGradient id="paint7_linear_89_1170" x1="464.703" y1="488.411" x2="462.237" y2="461.42" gradientUnits="userSpaceOnUse">
<stop stop-color="#634A4A"/>
<stop offset="1" stop-color="#2F2929"/>
</linearGradient>
<linearGradient id="paint8_linear_89_1170" x1="464.83" y1="488.938" x2="461.809" y2="460.926" gradientUnits="userSpaceOnUse">
<stop stop-color="#634A4A"/>
<stop offset="1" stop-color="#2F2929"/>
</linearGradient>
<linearGradient id="paint9_linear_89_1170" x1="465.201" y1="489.21" x2="461.601" y2="460.187" gradientUnits="userSpaceOnUse">
<stop stop-color="#634A4A"/>
<stop offset="1" stop-color="#2F2929"/>
</linearGradient>
<linearGradient id="paint10_linear_89_1170" x1="465.266" y1="490.011" x2="461.008" y2="459.634" gradientUnits="userSpaceOnUse">
<stop stop-color="#634A4A"/>
<stop offset="1" stop-color="#2F2929"/>
</linearGradient>
<linearGradient id="paint11_linear_89_1170" x1="465.888" y1="490.649" x2="460.94" y2="458.935" gradientUnits="userSpaceOnUse">
<stop stop-color="#634A4A"/>
<stop offset="1" stop-color="#2F2929"/>
</linearGradient>
<linearGradient id="paint12_linear_89_1170" x1="466.335" y1="491.466" x2="460.658" y2="458.427" gradientUnits="userSpaceOnUse">
<stop stop-color="#634A4A"/>
<stop offset="1" stop-color="#2F2929"/>
</linearGradient>
<linearGradient id="paint13_linear_89_1170" x1="466.519" y1="492.111" x2="460.075" y2="457.759" gradientUnits="userSpaceOnUse">
<stop stop-color="#634A4A"/>
<stop offset="1" stop-color="#2F2929"/>
</linearGradient>
<linearGradient id="paint14_linear_89_1170" x1="466.94" y1="492.791" x2="459.623" y2="456.791" gradientUnits="userSpaceOnUse">
<stop stop-color="#634A4A"/>
<stop offset="1" stop-color="#2F2929"/>
</linearGradient>
<linearGradient id="paint15_linear_89_1170" x1="467.526" y1="493.819" x2="459.209" y2="455.845" gradientUnits="userSpaceOnUse">
<stop stop-color="#634A4A"/>
<stop offset="1" stop-color="#2F2929"/>
</linearGradient>
<linearGradient id="paint16_linear_89_1170" x1="467.881" y1="494.81" x2="458.502" y2="454.88" gradientUnits="userSpaceOnUse">
<stop stop-color="#634A4A"/>
<stop offset="1" stop-color="#2F2929"/>
</linearGradient>
<linearGradient id="paint17_linear_89_1170" x1="468.443" y1="495.792" x2="457.943" y2="453.932" gradientUnits="userSpaceOnUse">
<stop stop-color="#634A4A"/>
<stop offset="1" stop-color="#2F2929"/>
</linearGradient>
<linearGradient id="paint18_linear_89_1170" x1="469.286" y1="496.841" x2="457.514" y2="452.735" gradientUnits="userSpaceOnUse">
<stop stop-color="#634A4A"/>
<stop offset="1" stop-color="#2F2929"/>
</linearGradient>
<linearGradient id="paint19_linear_89_1170" x1="469.859" y1="497.968" x2="456.737" y2="451.642" gradientUnits="userSpaceOnUse">
<stop stop-color="#634A4A"/>
<stop offset="1" stop-color="#2F2929"/>
</linearGradient>
<linearGradient id="paint20_linear_89_1170" x1="470.688" y1="499.541" x2="455.935" y2="450.348" gradientUnits="userSpaceOnUse">
<stop stop-color="#634A4A"/>
<stop offset="1" stop-color="#2F2929"/>
</linearGradient>
<linearGradient id="paint21_linear_89_1170" x1="471.506" y1="500.674" x2="455.135" y2="448.994" gradientUnits="userSpaceOnUse">
<stop stop-color="#634A4A"/>
<stop offset="1" stop-color="#2F2929"/>
</linearGradient>
<linearGradient id="paint22_linear_89_1170" x1="472.472" y1="502.429" x2="454.16" y2="447.631" gradientUnits="userSpaceOnUse">
<stop stop-color="#634A4A"/>
<stop offset="1" stop-color="#2F2929"/>
</linearGradient>
<linearGradient id="paint23_linear_89_1170" x1="473.548" y1="503.866" x2="453.07" y2="445.662" gradientUnits="userSpaceOnUse">
<stop stop-color="#634A4A"/>
<stop offset="1" stop-color="#2F2929"/>
</linearGradient>
<linearGradient id="paint24_linear_89_1170" x1="474.827" y1="505.62" x2="452.049" y2="444.079" gradientUnits="userSpaceOnUse">
<stop stop-color="#634A4A"/>
<stop offset="1" stop-color="#2F2929"/>
</linearGradient>
<linearGradient id="paint25_linear_89_1170" x1="476.011" y1="507.781" x2="450.535" y2="442.302" gradientUnits="userSpaceOnUse">
<stop stop-color="#634A4A"/>
<stop offset="1" stop-color="#2F2929"/>
</linearGradient>
<linearGradient id="paint26_linear_89_1170" x1="477.543" y1="509.761" x2="449.082" y2="440.098" gradientUnits="userSpaceOnUse">
<stop stop-color="#634A4A"/>
<stop offset="1" stop-color="#2F2929"/>
</linearGradient>
<linearGradient id="paint27_linear_89_1170" x1="479.365" y1="511.994" x2="447.462" y2="437.587" gradientUnits="userSpaceOnUse">
<stop stop-color="#634A4A"/>
<stop offset="1" stop-color="#2F2929"/>
</linearGradient>
<linearGradient id="paint28_linear_89_1170" x1="481.17" y1="514.411" x2="445.611" y2="435.379" gradientUnits="userSpaceOnUse">
<stop stop-color="#634A4A"/>
<stop offset="1" stop-color="#2F2929"/>
</linearGradient>
<linearGradient id="paint29_linear_89_1170" x1="483.405" y1="517.21" x2="443.519" y2="432.713" gradientUnits="userSpaceOnUse">
<stop stop-color="#634A4A"/>
<stop offset="1" stop-color="#2F2929"/>
</linearGradient>
<linearGradient id="paint30_linear_89_1170" x1="485.685" y1="520.208" x2="440.894" y2="429.759" gradientUnits="userSpaceOnUse">
<stop stop-color="#634A4A"/>
<stop offset="1" stop-color="#2F2929"/>
</linearGradient>
<linearGradient id="paint31_linear_89_1170" x1="488.274" y1="523.2" x2="438.121" y2="426.669" gradientUnits="userSpaceOnUse">
<stop stop-color="#634A4A"/>
<stop offset="1" stop-color="#2F2929"/>
</linearGradient>
<linearGradient id="paint32_linear_89_1170" x1="491.485" y1="526.751" x2="434.969" y2="423.103" gradientUnits="userSpaceOnUse">
<stop stop-color="#634A4A"/>
<stop offset="1" stop-color="#2F2929"/>
</linearGradient>
<linearGradient id="paint33_linear_89_1170" x1="494.98" y1="530.218" x2="431.546" y2="419.407" gradientUnits="userSpaceOnUse">
<stop stop-color="#634A4A"/>
<stop offset="1" stop-color="#2F2929"/>
</linearGradient>
<linearGradient id="paint34_linear_89_1170" x1="499.215" y1="534.419" x2="427.711" y2="415.536" gradientUnits="userSpaceOnUse">
<stop stop-color="#634A4A"/>
<stop offset="1" stop-color="#2F2929"/>
</linearGradient>
<linearGradient id="paint35_linear_89_1170" x1="503.786" y1="538.649" x2="422.978" y2="410.835" gradientUnits="userSpaceOnUse">
<stop stop-color="#634A4A"/>
<stop offset="1" stop-color="#2F2929"/>
</linearGradient>
<linearGradient id="paint36_linear_89_1170" x1="508.908" y1="543.374" x2="417.639" y2="406.185" gradientUnits="userSpaceOnUse">
<stop stop-color="#634A4A"/>
<stop offset="1" stop-color="#2F2929"/>
</linearGradient>
<linearGradient id="paint37_linear_89_1170" x1="514.904" y1="548.589" x2="411.54" y2="401.086" gradientUnits="userSpaceOnUse">
<stop stop-color="#634A4A"/>
<stop offset="1" stop-color="#2F2929"/>
</linearGradient>
<linearGradient id="paint38_linear_89_1170" x1="521.905" y1="554.112" x2="404.901" y2="395.789" gradientUnits="userSpaceOnUse">
<stop stop-color="#634A4A"/>
<stop offset="1" stop-color="#2F2929"/>
</linearGradient>
<linearGradient id="paint39_linear_89_1170" x1="529.935" y1="560.007" x2="396.99" y2="389.615" gradientUnits="userSpaceOnUse">
<stop stop-color="#634A4A"/>
<stop offset="1" stop-color="#2F2929"/>
</linearGradient>
<linearGradient id="paint40_linear_89_1170" x1="538.886" y1="566.405" x2="387.952" y2="383.467" gradientUnits="userSpaceOnUse">
<stop stop-color="#634A4A"/>
<stop offset="1" stop-color="#2F2929"/>
</linearGradient>
<linearGradient id="paint41_linear_89_1170" x1="549.299" y1="573.128" x2="377.538" y2="376.532" gradientUnits="userSpaceOnUse">
<stop stop-color="#634A4A"/>
<stop offset="1" stop-color="#2F2929"/>
</linearGradient>
<linearGradient id="paint42_linear_89_1170" x1="561.173" y1="580.418" x2="365.53" y2="369.323" gradientUnits="userSpaceOnUse">
<stop stop-color="#634A4A"/>
<stop offset="1" stop-color="#2F2929"/>
</linearGradient>
<linearGradient id="paint43_linear_89_1170" x1="574.993" y1="588.16" x2="352.007" y2="361.779" gradientUnits="userSpaceOnUse">
<stop stop-color="#634A4A"/>
<stop offset="1" stop-color="#2F2929"/>
</linearGradient>
<linearGradient id="paint44_linear_89_1170" x1="590.461" y1="596.082" x2="336.225" y2="353.648" gradientUnits="userSpaceOnUse">
<stop stop-color="#634A4A"/>
<stop offset="1" stop-color="#2F2929"/>
</linearGradient>
<linearGradient id="paint45_linear_89_1170" x1="608.298" y1="604.426" x2="318.447" y2="345.374" gradientUnits="userSpaceOnUse">
<stop stop-color="#634A4A"/>
<stop offset="1" stop-color="#2F2929"/>
</linearGradient>
<linearGradient id="paint46_linear_89_1170" x1="628.841" y1="613.121" x2="298.025" y2="336.587" gradientUnits="userSpaceOnUse">
<stop stop-color="#634A4A"/>
<stop offset="1" stop-color="#2F2929"/>
</linearGradient>
<linearGradient id="paint47_linear_89_1170" x1="651.868" y1="622.068" x2="274.751" y2="327.907" gradientUnits="userSpaceOnUse">
<stop stop-color="#634A4A"/>
<stop offset="1" stop-color="#2F2929"/>
</linearGradient>
<linearGradient id="paint48_linear_89_1170" x1="678.355" y1="630.954" x2="248.677" y2="318.922" gradientUnits="userSpaceOnUse">
<stop stop-color="#634A4A"/>
<stop offset="1" stop-color="#2F2929"/>
</linearGradient>
<linearGradient id="paint49_linear_89_1170" x1="707.791" y1="639.889" x2="218.727" y2="310.013" gradientUnits="userSpaceOnUse">
<stop stop-color="#634A4A"/>
<stop offset="1" stop-color="#2F2929"/>
</linearGradient>
<linearGradient id="paint50_linear_89_1170" x1="299.455" y1="758.715" x2="627.214" y2="191.019" gradientUnits="userSpaceOnUse">
<stop stop-color="#634A4A"/>
<stop offset="1" stop-color="#2F2929"/>
</linearGradient>
</defs>
</svg>
