<svg width="420" height="419" viewBox="0 0 420 419" fill="none" xmlns="http://www.w3.org/2000/svg">
    <defs>
        <linearGradient id="paint0_linear_2894_129521" x1="210.45" y1="1.95026" x2="210.45" y2="416.95" gradientUnits="userSpaceOnUse">
            <stop stop-color="#5C191A" stop-opacity="0"/>
            <stop offset="0.484921" stop-color="#3b8fca"/>
            <stop offset="1" stop-color="#3b8fca" stop-opacity="0.32"/>
        </linearGradient>
        <linearGradient id="paint1_linear_2894_129521" x1="210.632" y1="11.1332" x2="210.632" y2="409.133" gradientUnits="userSpaceOnUse">
            <stop stop-color="#5C191A" stop-opacity="0"/>
            <stop offset="0.484921" stop-color="#3b8fca"/>
            <stop offset="1" stop-color="#3b8fca" stop-opacity="0.32"/>
        </linearGradient>
        <linearGradient id="paint2_linear_2894_129521" x1="210.449" y1="17.9503" x2="210.449" y2="400.95" gradientUnits="userSpaceOnUse">
            <stop stop-color="#5C191A" stop-opacity="0"/>
            <stop offset="0.484921" stop-color="#3b8fca"/>
            <stop offset="1" stop-color="#3b8fca" stop-opacity="0.32"/>
        </linearGradient>
        <linearGradient id="paint3_linear_2894_129521" x1="210.632" y1="26.1333" x2="210.632" y2="394.133" gradientUnits="userSpaceOnUse">
            <stop stop-color="#FF393C" stop-opacity="0"/>
            <stop offset="0.484921" stop-color="#3b8fca"/>
            <stop offset="1" stop-color="#3b8fca" stop-opacity="0.32"/>
        </linearGradient>
        <linearGradient id="paint5_linear_2894_129521" x1="211.949" y1="96.9502" x2="211.949" y2="279.95" gradientUnits="userSpaceOnUse">
            <stop stop-color="#3b8fca"/>
            <stop offset="1" stop-color="#3b8fca" stop-opacity="0"/>
        </linearGradient>
    </defs>

    <!-- Первая картинка (фон) -->
    <g clip-path="url(#clip0_2894_129521)">
        <circle cx="210.45" cy="209.45" r="207" transform="rotate(120 210.45 209.45)" stroke="url(#paint0_linear_2894_129521)"/>
        <circle cx="210.632" cy="210.133" r="198.5" transform="rotate(120 210.632 210.133)" stroke="url(#paint1_linear_2894_129521)"/>
        <circle cx="210.449" cy="209.45" r="191" transform="rotate(120 210.449 209.45)" stroke="url(#paint2_linear_2894_129521)"/>
        <circle cx="210.632" cy="210.133" r="183.5" transform="rotate(120 210.632 210.133)" stroke="url(#paint3_linear_2894_129521)"/>
        <path fill-rule="evenodd" clip-rule="evenodd" d="M386.949 208.95C386.949 305.857 308.569 384.95 210.949 384.95C113.33 384.95 34.9492 306.57 34.9492 208.95C34.9492 111.331 113.33 32.9502 210.949 32.9502C308.569 32.9502 386.949 111.331 386.949 208.95ZM161.783 278.78H127.581C120.455 278.78 116.893 278.78 114.755 277.355V277.355C110.065 274.228 110.589 267.272 113.204 262.278C113.835 261.073 114.586 259.704 115.467 258.116L199.548 109.906C203.111 103.493 205.249 100.642 207.386 99.2174C209.524 97.7923 213.087 97.7923 215.225 99.2174C217.362 100.642 219.5 103.493 223.063 109.906L240.164 139.833C243.727 146.246 245.864 149.808 246.577 153.371C247.289 157.647 247.289 161.209 246.577 165.485C245.864 169.047 243.727 172.61 240.164 179.736L195.986 258.116C192.423 265.242 190.285 268.092 187.435 270.942V270.942C181.513 276.864 172.722 278.756 164.347 278.778C163.537 278.78 162.684 278.78 161.783 278.78ZM248.002 278.78H297.168C304.293 278.78 307.856 278.78 309.994 277.355V277.355C314.684 274.228 314.184 267.253 311.624 262.23C310.977 260.962 310.2 259.586 309.281 258.116L285.226 216.374C285.114 216.178 285.055 215.957 285.055 215.732V215.732C285.055 215.491 284.985 215.253 284.858 215.048C281.439 209.557 280.027 206.786 277.929 205.387C275.791 203.962 272.229 203.962 270.091 205.387C267.953 206.813 265.816 209.663 262.253 216.076L236.601 258.116C234.981 261.032 233.656 263.211 232.759 264.989C231.118 268.243 231.039 272.14 233.332 274.973V274.973C234.658 276.612 236.706 278.177 238.793 278.484C240.81 278.78 243.781 278.78 248.002 278.78Z" fill="black" fill-opacity="0.1" stroke="url(#paint4_linear_2894_129521)"/>
    </g>

    <!-- Вторая картинка (синий треугольник) с отступами 20% -->
    <g transform="translate(84, 120) scale(0.5)">
        <path d="M 2.700 3.250 C 3.743 5.038, 59.649 105.613, 126.935 226.750 C 194.221 347.888, 249.603 447, 250.005 447 C 250.408 447, 267.547 416.737, 288.091 379.750 C 338.999 288.099, 338.173 289.612, 336.616 290.904 C 335.487 291.841, 319.989 265.478, 251.449 146.025 L 167.663 0 84.233 0 L 0.802 0 2.700 3.250"
              stroke="none" fill="#46aef5" fill-rule="evenodd"/>
        <path d="M 169.108 2.250 C 169.756 3.488, 207.410 69.214, 252.784 148.309 C 303.395 236.535, 335.639 291.761, 336.207 291.193 C 337.099 290.301, 498 1.060, 498 0.349 C 498 0.157, 423.734 0, 332.965 0 L 167.930 0 169.108 2.250"
              stroke="none" fill="#3b8fca" fill-rule="evenodd"/>
    </g>

    <clipPath id="clip0_2894_129521">
        <rect width="420" height="419" fill="white"/>
    </clipPath>
</svg>